<svg width="80" height="80" viewBox="0 0 80 80" fill="none" xmlns="http://www.w3.org/2000/svg">
<path d="M71.3054 52.2497C71.228 52.1203 71.1466 51.9964 71.0654 51.887C70.2574 50.7576 69.056 50.0111 67.6854 49.7856C66.3213 49.5603 64.9386 49.8815 63.8133 50.6897L48.9066 61.3337H33.3333C32.5986 61.3337 32.0001 60.7364 32.0001 60.0005C32.0001 59.2645 32.5986 58.6672 33.3333 58.6672H42.0001C44.5733 58.6672 46.6668 56.5739 46.6668 54.0005C46.6668 53.9858 46.6654 53.8631 46.6641 53.8498C46.5815 51.2778 44.4121 49.2725 41.8935 49.3339H24.5482C23.0108 49.3472 21.5135 49.898 20.3335 50.8819L13.8135 56.3086C13.5094 56.5633 13.3335 56.938 13.3335 57.3339V73.3339C13.3335 74.0712 13.9308 74.6672 14.6668 74.6672H47.7482C49.9135 74.6645 52.0229 73.9019 53.6896 72.5219L69.8536 59.1659C72.0494 57.6016 72.6868 54.5644 71.3054 52.2497ZM68.2321 57.0523L51.9907 70.467C50.7986 71.4537 49.2907 71.9976 47.7466 72.0003H16.0001V57.9589L22.0413 52.9295C22.7507 52.3389 23.648 52.0081 24.5601 52.0001L41.936 51.9989C43.0413 51.9975 43.964 52.8336 44.0001 54.0003C44.0001 55.103 43.1027 56.0003 42.0001 56.0003H33.3333C31.128 56.0003 29.3333 57.795 29.3333 60.0003C29.3333 62.2056 31.128 64.0003 33.3333 64.0003H49.3333C49.6107 64.0003 49.8813 63.9136 50.1107 63.7523L65.3666 52.8576C65.916 52.463 66.584 52.3097 67.2533 52.4162C67.9213 52.5269 68.5054 52.8895 68.9066 53.4495C68.9466 53.5042 68.9825 53.5601 69.0172 53.6175C69.6921 54.747 69.3787 56.2309 68.2321 57.0523Z" fill="white"/>
<path d="M14.6267 54.667H0V57.3337H13.2933V77.3337H0V80.0003H14.6267C15.3627 80.0003 15.96 79.4043 15.96 78.667V56.0003C15.96 55.2629 15.3627 54.667 14.6267 54.667Z" fill="white"/>
<path d="M6.66675 66.6665C4.46144 66.6665 2.66675 68.4612 2.66675 70.6665C2.66675 72.8718 4.46144 74.6665 6.66675 74.6665C8.87206 74.6665 10.6667 72.8718 10.6667 70.6665C10.6667 68.4612 8.87206 66.6665 6.66675 66.6665ZM6.66675 71.9998C5.93206 71.9998 5.33347 71.4024 5.33347 70.6665C5.33347 69.9306 5.93206 69.3332 6.66675 69.3332C7.40144 69.3332 8.00003 69.9306 8.00003 70.6665C8.00003 71.4024 7.40144 71.9998 6.66675 71.9998Z" fill="white"/>
<path d="M78.6667 41.3335H1.33328C0.597344 41.3335 0 41.9294 0 42.6668C0 47.8121 4.18672 52.0001 9.33328 52.0001H70.6666C75.8119 52.0001 79.9998 47.8121 79.9998 42.6668C80 41.9296 79.4041 41.3335 78.6667 41.3335ZM70.6667 49.3335H9.33328C6.11328 49.3335 3.42 47.0388 2.80125 44.0002H77.1986C76.58 47.0388 73.8867 49.3335 70.6667 49.3335Z" fill="white"/>
<path d="M40 6.6665C20.8853 6.6665 5.33325 22.2185 5.33325 41.3332V42.6665C5.33325 43.4038 5.9306 43.9998 6.66653 43.9998H73.3333C74.0706 43.9998 74.6665 43.4038 74.6665 42.6665V41.3332C74.6667 22.2184 59.1159 6.6665 40 6.6665ZM7.99997 41.3331C7.99997 23.689 22.3559 9.33307 40 9.33307C57.644 9.33307 72 23.689 72 41.3331H7.99997Z" fill="white"/>
<path d="M18.0694 21.876C17.1374 22.9239 16.2735 24.0454 15.5015 25.2107L17.7241 26.6839C18.4282 25.6225 19.2147 24.5999 20.0627 23.6466L18.0694 21.876Z" fill="white"/>
<path d="M40 12C32.5121 12.0041 25.3827 14.8333 19.9268 19.9627L21.7535 21.9053C26.7135 17.2412 33.1947 14.6706 40.0014 14.6667L40 12Z" fill="white"/>
<path d="M44 0H36V2.66672H44V0Z" fill="white"/>
<path d="M41.3335 1.3335H38.6667V8.00021H41.3335V1.3335Z" fill="white"/>
</svg>
